<?xml version="1.0" encoding="utf-8"?>
<svg id="master-artboard" viewBox="0 0 710.6261596679688 113.16365051269531" xmlns="http://www.w3.org/2000/svg" width="710.6261596679688px" height="113.16365051269531px" version="1.1" style="shape-rendering:geometricPrecision; text-rendering:geometricPrecision; image-rendering:optimizeQuality; fill-rule:evenodd; clip-rule:evenodd"><rect id="ee-background" x="0" y="0" width="710.6261596679688" height="113.16365051269531" style="fill: white; fill-opacity: 0; pointer-events: none;"/><defs><style id="ee-google-fonts">@import url(https://fonts.googleapis.com/css?family=Artifika:400);</style></defs><g transform="matrix(0.14436915516853333, 0, 0, 0.14436915516853333, 145.157958984375, 33.83380126953125)"><title/><g id="icomoon-ignore">
</g><path d="M256 0c-139.374 0-252.729 111.381-255.924 249.987 2.96-120.932 94.916-217.987 207.924-217.987 114.875 0 208 100.288 208 224 0 26.51 21.49 48 48 48s48-21.49 48-48c0-141.385-114.615-256-256-256zM256 512c139.374 0 252.729-111.381 255.924-249.987-2.96 120.932-94.916 217.987-207.924 217.987-114.875 0-208-100.288-208-224 0-26.51-21.49-48-48-48s-48 21.49-48 48c0 141.385 114.615 256 256 256z"/></g><path d="M 94.23490142822266 320.5899963378906 C 93.54823303222656 321.9566650390625 92.67156982421875 323.24334716796875 91.60490417480469 324.45001220703125 C 90.53157043457031 325.663330078125 89.33489990234375 326.72332763671875 88.01490020751953 327.6300048828125 C 86.688232421875 328.5433349609375 85.26156616210938 329.2633361816406 83.73490142822266 329.7900085449219 C 82.20823669433594 330.30999755859375 80.6249008178711 330.57000732421875 78.98490142822266 330.57000732421875 C 77.80490112304688 330.57000732421875 76.79156494140625 330.2733459472656 75.94490051269531 329.67999267578125 C 75.10490417480469 329.086669921875 74.43157196044922 328.0633239746094 73.9249038696289 326.6099853515625 L 71.1249008178711 318.20001220703125 C 71.6249008178711 317.97332763671875 72.36489868164062 317.70001220703125 73.34490203857422 317.3800048828125 C 74.32490539550781 317.05999755859375 75.38490295410156 316.6266784667969 76.52490234375 316.0799865722656 C 77.66490173339844 315.5333251953125 78.81490325927734 314.82666015625 79.97489929199219 313.9599914550781 C 81.14157104492188 313.09332275390625 82.15823364257812 312 83.02490234375 310.67999267578125 C 83.84490203857422 309.40667724609375 84.66490173339844 307.2066650390625 85.48490142822266 304.0799865722656 C 86.30490112304688 300.9599914550781 87.07823181152344 297.2933349609375 87.80490112304688 293.08001708984375 C 88.53823852539062 288.8599853515625 89.23490142822266 284.2900085449219 89.89490509033203 279.3699951171875 C 90.55490112304688 274.45001220703125 91.1249008178711 269.5733337402344 91.60490417480469 264.739990234375 C 92.07823181152344 259.913330078125 92.46490478515625 255.30999755859375 92.76490020751953 250.92999267578125 C 93.05823516845703 246.55667114257812 93.22823333740234 242.79666137695312 93.27490234375 239.64999389648438 L 79.94490051269531 239.64999389648438 L 79.94490051269531 234.25 C 80.53823852539062 233.93667602539062 81.51823425292969 233.59666442871094 82.88490295410156 233.23001098632812 C 84.25157165527344 232.86334228515625 85.76823425292969 232.51998901367188 87.43490600585938 232.1999969482422 C 89.09490203857422 231.8800048828125 90.80156707763672 231.6199951171875 92.55490112304688 231.4199981689453 C 94.30823516845703 231.2133331298828 95.89157104492188 231.11000061035156 97.30490112304688 231.11000061035156 C 99.17823791503906 231.11000061035156 100.78489685058594 231.14334106445312 102.1249008178711 231.20999145507812 C 103.47157287597656 231.27667236328125 104.6448974609375 231.43667602539062 105.6448974609375 231.69000244140625 C 106.65156555175781 231.94332885742188 107.50823974609375 232.32000732421875 108.21490478515625 232.82000732421875 C 108.92156982421875 233.32000732421875 109.54823303222656 233.98001098632812 110.09490203857422 234.8000030517578 C 111.78157043457031 238.72000122070312 113.48823547363281 242.83334350585938 115.21490478515625 247.13999938964844 C 116.94823455810547 251.4466552734375 118.63490295410156 255.80999755859375 120.27490234375 260.2300109863281 C 121.91490173339844 264.6499938964844 127.97824096679688 282.30999755859375 138.46490478515625 313.2099914550781 C 147.80490112304688 284.9966735839844 153.72824096679688 267.4166564941406 156.23489379882812 260.4700012207031 C 158.7415771484375 253.51666259765625 160.92823791503906 247.7066650390625 162.79489135742188 243.04000854492188 C 164.66156005859375 238.36666870117188 166.12156677246094 235.14334106445312 167.17489624023438 233.3699951171875 C 167.12823486328125 233.32333374023438 167.4815673828125 233.17333984375 168.23489379882812 232.9199981689453 C 168.9815673828125 232.66665649414062 169.9015655517578 232.40333557128906 170.99490356445312 232.1300048828125 C 172.09490966796875 231.85665893554688 173.27157592773438 231.6199951171875 174.52490234375 231.4199981689453 C 175.77822875976562 231.2133331298828 176.92823791503906 231.11000061035156 177.9748992919922 231.11000061035156 C 179.0682373046875 231.11000061035156 179.95489501953125 231.2133331298828 180.63490295410156 231.4199981689453 C 181.32156372070312 231.6199951171875 181.86822509765625 231.93667602539062 182.27490234375 232.3699951171875 C 182.688232421875 232.8033447265625 183.00823974609375 233.35000610351562 183.23489379882812 234.010009765625 C 183.46157836914062 234.67666625976562 183.66824340820312 235.44000244140625 183.8549041748047 236.3000030517578 L 194.92489624023438 319.7699890136719 L 207.91490173339844 317.7900085449219 L 209.1448974609375 322.8500061035156 C 208.18490600585938 323.8033447265625 206.8182373046875 324.7466735839844 205.04490661621094 325.67999267578125 C 203.26490783691406 326.6199951171875 201.3148956298828 327.4766540527344 199.1949005126953 328.25 C 197.0749053955078 329.0233459472656 194.88824462890625 329.6499938964844 192.63490295410156 330.1300048828125 C 190.38156127929688 330.6099853515625 188.29823303222656 330.8500061035156 186.38490295410156 330.8500061035156 C 185.6049041748047 330.8500061035156 184.8182373046875 330.7699890136719 184.02490234375 330.6099853515625 C 183.2248992919922 330.45001220703125 182.49490356445312 330.1766662597656 181.83489990234375 329.7900085449219 C 181.17489624023438 329.4033203125 180.6049041748047 328.8766784667969 180.12490844726562 328.2099914550781 C 179.6448974609375 327.54998779296875 179.33822631835938 326.6966552734375 179.20489501953125 325.6499938964844 L 170.6549072265625 255.510009765625 C 166.46157836914062 267.5899963378906 161.80157470703125 280.5233459472656 156.67489624023438 294.30999755859375 C 151.54823303222656 308.0966796875 148.35824584960938 316.49334716796875 147.1049041748047 319.5 C 145.8515625 322.50665283203125 144.87156677246094 324.7166748046875 144.16490173339844 326.1300048828125 C 143.45823669433594 327.5433349609375 142.9915771484375 328.38665771484375 142.764892578125 328.6600036621094 C 142.53823852539062 328.9333190917969 142.42489624023438 329.0466613769531 142.42489624023438 329 L 134.9748992919922 329 C 133.88156127929688 329 132.92489624023438 328.9200134277344 132.1049041748047 328.760009765625 C 131.284912109375 328.6000061035156 130.55490112304688 328.3166809082031 129.91490173339844 327.9100036621094 C 129.27490234375 327.4966735839844 128.70489501953125 326.9266662597656 128.20489501953125 326.20001220703125 C 127.70490264892578 325.4666748046875 127.24822998046875 324.5299987792969 126.83489990234375 323.3900146484375 C 122.3749008178711 311.45001220703125 118.63823699951172 301.2200012207031 115.6249008178711 292.70001220703125 C 112.61824035644531 284.17999267578125 110.20490264892578 277.183349609375 108.38490295410156 271.7099914550781 C 106.23823547363281 265.2900085449219 104.55157470703125 259.98333740234375 103.32490539550781 255.79000854492188 C 103.09823608398438 259.663330078125 102.85823059082031 263.6600036621094 102.60490417480469 267.7799987792969 C 102.35823059082031 271.90667724609375 102.06156921386719 276.0333251953125 101.71490478515625 280.1600036621094 C 101.3749008178711 284.2799987792969 100.97824096679688 288.3233337402344 100.52490234375 292.2900085449219 C 100.06490325927734 296.25665283203125 99.53823852539062 299.99334716796875 98.94490051269531 303.5 C 98.35823822021484 307.0133361816406 97.6749038696289 310.2366638183594 96.89490509033203 313.1700134277344 C 96.12156677246094 316.1099853515625 95.23490142822266 318.5833435058594 94.23490142822266 320.5899963378906 Z" transform="matrix(1, 0, 0, 1, -69.96119689941406, -222.24093627929688)" style="fill: rgb(0, 0, 0); white-space: pre; color: rgb(51, 51, 51);"/><path d="M 523.0556640625 343 L 523.0556640625 345.94000244140625 C 523.0556640625 347.99334716796875 522.6123046875 349.4166564941406 521.7256469726562 350.2099914550781 C 520.8323364257812 351.010009765625 519.4056396484375 351.4100036621094 517.4456176757812 351.4100036621094 L 499.2656555175781 351.4100036621094 L 499.2656555175781 391.4700012207031 C 499.2656555175781 396.57000732421875 500.198974609375 400.42999267578125 502.0656433105469 403.04998779296875 C 503.93231201171875 405.6700134277344 506.7823181152344 406.9800109863281 510.6156311035156 406.9800109863281 C 512.3023071289062 406.9800109863281 514.0322875976562 406.77667236328125 515.8056640625 406.3699951171875 C 517.5856323242188 405.9566650390625 519.1823120117188 405.5233459472656 520.5956420898438 405.07000732421875 C 522.0089721679688 404.6166687011719 523.1589965820312 404.2166748046875 524.045654296875 403.8699951171875 C 524.9323120117188 403.5299987792969 525.352294921875 403.40667724609375 525.3056640625 403.5 L 527.4956665039062 408.2099914550781 C 525.9022827148438 409.2166748046875 524.3089599609375 410.1400146484375 522.7156372070312 410.9800109863281 C 521.1156616210938 411.82666015625 519.428955078125 412.5566711425781 517.6556396484375 413.1700134277344 C 515.8756713867188 413.7833251953125 513.9622802734375 414.2633361816406 511.9156494140625 414.6099853515625 C 509.8623046875 414.95001220703125 507.5589599609375 415.1199951171875 505.0056457519531 415.1199951171875 C 501.6789855957031 415.1199951171875 498.68231201171875 414.6066589355469 496.0156555175781 413.5799865722656 C 493.3489685058594 412.5533447265625 491.0823059082031 411.0833435058594 489.21563720703125 409.1700134277344 C 487.3489685058594 407.25665283203125 485.9123229980469 404.9100036621094 484.9056396484375 402.1300048828125 C 483.9056396484375 399.3500061035156 483.4056396484375 396.2066650390625 483.4056396484375 392.70001220703125 L 483.4056396484375 351.4100036621094 L 469.2556457519531 351.4100036621094 L 469.2556457519531 348.33001708984375 C 469.2556457519531 346.2833251953125 469.698974609375 344.8833312988281 470.58563232421875 344.1300048828125 C 471.4789733886719 343.37664794921875 472.9023132324219 343 474.85565185546875 343 L 483.4056396484375 343 L 483.4056396484375 326.7300109863281 C 483.4056396484375 325.4966735839844 483.5989685058594 324.4599914550781 483.98565673828125 323.6199951171875 C 484.372314453125 322.7799987792969 484.93231201171875 322.1199951171875 485.6656494140625 321.6400146484375 C 486.3923034667969 321.1600036621094 487.23565673828125 320.816650390625 488.1956481933594 320.6099853515625 C 489.14898681640625 320.4033203125 490.2189636230469 320.29998779296875 491.4056396484375 320.29998779296875 C 492.13232421875 320.29998779296875 492.93896484375 320.3466796875 493.8256530761719 320.44000244140625 C 494.7189636230469 320.5333251953125 495.6089782714844 320.6600036621094 496.4956359863281 320.82000732421875 C 497.38232421875 320.9800109863281 498.22564697265625 321.1966552734375 499.025634765625 321.4700012207031 C 499.8256530761719 321.74334716796875 500.54229736328125 322.05999755859375 501.1756591796875 322.41998291015625 C 501.04229736328125 323.05999755859375 500.8623046875 323.9166564941406 500.6356506347656 324.989990234375 C 500.4023132324219 326.0566711425781 500.1856384277344 327.4100036621094 499.98565673828125 329.04998779296875 C 499.77899169921875 330.6966552734375 499.60565185546875 332.66998291015625 499.46563720703125 334.9700012207031 C 499.3323059082031 337.2699890136719 499.2656555175781 339.9466552734375 499.2656555175781 343 L 523.0556640625 343 ZM 562.5633544921875 406.1600036621094 L 574.4633178710938 406.1600036621094 L 574.4633178710938 411.2900085449219 C 573.683349609375 411.7033386230469 572.6233520507812 412.0899963378906 571.2833251953125 412.45001220703125 C 569.9366455078125 412.8166809082031 568.443359375 413.13665771484375 566.8033447265625 413.4100036621094 C 565.163330078125 413.6833190917969 563.4533081054688 413.8900146484375 561.67333984375 414.0299987792969 C 559.9000244140625 414.163330078125 558.193359375 414.2300109863281 556.5533447265625 414.2300109863281 C 555.1400146484375 414.2300109863281 553.8399658203125 414.1499938964844 552.6533203125 413.989990234375 C 551.4666748046875 413.8299865722656 550.4299926757812 413.510009765625 549.5433349609375 413.0299987792969 C 548.6566772460938 412.5566711425781 547.9600219726562 411.89666748046875 547.4533081054688 411.04998779296875 C 546.9533081054688 410.2099914550781 546.7033081054688 409.0833435058594 546.7033081054688 407.6700134277344 L 546.7033081054688 349.70001220703125 L 534.67333984375 349.70001220703125 L 534.67333984375 344.57000732421875 C 535.63330078125 344.163330078125 536.9766845703125 343.77667236328125 538.7033081054688 343.4100036621094 C 540.4366455078125 343.0433349609375 542.3399658203125 342.7466735839844 544.413330078125 342.5199890136719 C 546.4866943359375 342.2933349609375 548.606689453125 342.1099853515625 550.7733154296875 341.9700012207031 C 552.9400024414062 341.836669921875 554.9099731445312 341.7699890136719 556.683349609375 341.7699890136719 C 557.643310546875 341.7699890136719 558.4866943359375 341.7933349609375 559.2133178710938 341.8399963378906 C 559.9466552734375 341.88665771484375 560.5633544921875 342.0233154296875 561.0633544921875 342.25 C 561.5633544921875 342.4766845703125 561.9400024414062 342.83001708984375 562.193359375 343.30999755859375 C 562.4400024414062 343.7900085449219 562.5633544921875 344.48333740234375 562.5633544921875 345.3900146484375 L 562.5633544921875 406.1600036621094 M 545.0633544921875 319.2099914550781 C 545.0633544921875 317.9366760253906 545.3133544921875 316.7300109863281 545.8133544921875 315.5899963378906 C 546.3200073242188 314.45001220703125 547.0066528320312 313.4700012207031 547.8733520507812 312.6499938964844 C 548.7333374023438 311.83001708984375 549.7566528320312 311.17999267578125 550.943359375 310.70001220703125 C 552.1300048828125 310.2200012207031 553.38330078125 309.9800109863281 554.7033081054688 309.9800109863281 C 556.0233154296875 309.9800109863281 557.2766723632812 310.2200012207031 558.4633178710938 310.70001220703125 C 559.6500244140625 311.17999267578125 560.6766357421875 311.83001708984375 561.5433349609375 312.6499938964844 C 562.4099731445312 313.4700012207031 563.0933227539062 314.45001220703125 563.5933227539062 315.5899963378906 C 564.0933227539062 316.7300109863281 564.3433227539062 317.9366760253906 564.3433227539062 319.2099914550781 C 564.3433227539062 320.48333740234375 564.0933227539062 321.66998291015625 563.5933227539062 322.7699890136719 C 563.0933227539062 323.86334228515625 562.4099731445312 324.82000732421875 561.5433349609375 325.6400146484375 C 560.6766357421875 326.4599914550781 559.6500244140625 327.1066589355469 558.4633178710938 327.58001708984375 C 557.2766723632812 328.05999755859375 556.0233154296875 328.29998779296875 554.7033081054688 328.29998779296875 C 553.38330078125 328.29998779296875 552.1300048828125 328.05999755859375 550.943359375 327.58001708984375 C 549.7566528320312 327.1066589355469 548.7333374023438 326.4599914550781 547.8733520507812 325.6400146484375 C 547.0066528320312 324.82000732421875 546.3200073242188 323.86334228515625 545.8133544921875 322.7699890136719 C 545.3133544921875 321.66998291015625 545.0633544921875 320.48333740234375 545.0633544921875 319.2099914550781 ZM 662.2386474609375 378.1400146484375 C 662.2386474609375 383.70001220703125 661.2686767578125 388.75665283203125 659.32861328125 393.30999755859375 C 657.388671875 397.8699951171875 654.7219848632812 401.76666259765625 651.32861328125 405 C 647.935302734375 408.239990234375 643.9586181640625 410.7366638183594 639.3986206054688 412.489990234375 C 634.8453369140625 414.24334716796875 629.9686279296875 415.1199951171875 624.7686157226562 415.1199951171875 C 619.4819946289062 415.1199951171875 614.5486450195312 414.2300109863281 609.9686279296875 412.45001220703125 C 605.388671875 410.6766662597656 601.415283203125 408.1700134277344 598.0486450195312 404.92999267578125 C 594.67529296875 401.6966552734375 592.0086669921875 397.8133239746094 590.0486450195312 393.2799987792969 C 588.088623046875 388.7466735839844 587.108642578125 383.70001220703125 587.108642578125 378.1400146484375 C 587.108642578125 372.5333251953125 588.088623046875 367.44000244140625 590.0486450195312 362.8599853515625 C 592.0086669921875 358.2799987792969 594.67529296875 354.3599853515625 598.0486450195312 351.1000061035156 C 601.415283203125 347.8399963378906 605.388671875 345.3233337402344 609.9686279296875 343.54998779296875 C 614.5486450195312 341.7699890136719 619.4819946289062 340.8800048828125 624.7686157226562 340.8800048828125 C 630.0153198242188 340.8800048828125 634.915283203125 341.7699890136719 639.4686279296875 343.54998779296875 C 644.0286254882812 345.3233337402344 647.9953002929688 347.8399963378906 651.36865234375 351.1000061035156 C 654.7352905273438 354.3599853515625 657.388671875 358.2799987792969 659.32861328125 362.8599853515625 C 661.2686767578125 367.44000244140625 662.2386474609375 372.5333251953125 662.2386474609375 378.1400146484375 M 603.9886474609375 378 C 603.9886474609375 381.8733215332031 604.2852783203125 385.6099853515625 604.878662109375 389.2099914550781 C 605.4719848632812 392.80999755859375 606.5552978515625 395.989990234375 608.128662109375 398.75 C 609.7019653320312 401.5033264160156 611.8219604492188 403.70001220703125 614.4886474609375 405.3399963378906 C 617.1553344726562 406.9800109863281 620.5819702148438 407.79998779296875 624.7686157226562 407.79998779296875 C 628.915283203125 407.79998779296875 632.3219604492188 406.9800109863281 634.9886474609375 405.3399963378906 C 637.6553344726562 403.70001220703125 639.751953125 401.5033264160156 641.2786254882812 398.75 C 642.8052978515625 395.989990234375 643.8652954101562 392.80999755859375 644.4586181640625 389.2099914550781 C 645.052001953125 385.6099853515625 645.3486328125 381.8733215332031 645.3486328125 378 C 645.3486328125 374.1266784667969 645.052001953125 370.3900146484375 644.4586181640625 366.7900085449219 C 643.8652954101562 363.19000244140625 642.8052978515625 360.010009765625 641.2786254882812 357.25 C 639.751953125 354.4966735839844 637.6553344726562 352.29998779296875 634.9886474609375 350.6600036621094 C 632.3219604492188 349.0199890136719 628.915283203125 348.20001220703125 624.7686157226562 348.20001220703125 C 620.5819702148438 348.20001220703125 617.1553344726562 349.0199890136719 614.4886474609375 350.6600036621094 C 611.8219604492188 352.29998779296875 609.7019653320312 354.4966735839844 608.128662109375 357.25 C 606.5552978515625 360.010009765625 605.4719848632812 363.19000244140625 604.878662109375 366.7900085449219 C 604.2852783203125 370.3900146484375 603.9886474609375 374.1266784667969 603.9886474609375 378 ZM 686.7716674804688 349.8399963378906 L 674.74169921875 349.8399963378906 L 674.74169921875 344.7099914550781 C 675.70166015625 344.2966613769531 677.0450439453125 343.9100036621094 678.7716674804688 343.54998779296875 C 680.5050048828125 343.183349609375 682.4083251953125 342.88665771484375 684.481689453125 342.6600036621094 C 686.5550537109375 342.433349609375 688.675048828125 342.25 690.8416748046875 342.1099853515625 C 693.0083618164062 341.9766845703125 694.9783325195312 341.9100036621094 696.751708984375 341.9100036621094 C 697.711669921875 341.9100036621094 698.5550537109375 341.92999267578125 699.2816772460938 341.9700012207031 C 700.0150146484375 342.01666259765625 700.6317138671875 342.1533203125 701.1317138671875 342.3800048828125 C 701.6317138671875 342.61334228515625 702.0083618164062 342.9666748046875 702.26171875 343.44000244140625 C 702.5083618164062 343.91998291015625 702.6317138671875 344.6166687011719 702.6317138671875 345.5299987792969 L 702.6317138671875 348.8800048828125 C 703.318359375 348.6533203125 704.5850219726562 348.1066589355469 706.4317016601562 347.239990234375 C 708.2716674804688 346.37335205078125 710.5150146484375 345.47332763671875 713.1616821289062 344.5400085449219 C 715.8016967773438 343.6066589355469 718.6950073242188 342.7633361816406 721.8416748046875 342.010009765625 C 724.9883422851562 341.25665283203125 728.20166015625 340.8800048828125 731.481689453125 340.8800048828125 C 735.4483642578125 340.8800048828125 738.6616821289062 341.4266662597656 741.1217041015625 342.5199890136719 C 743.5816650390625 343.61334228515625 745.4949951171875 345.1300048828125 746.8616943359375 347.07000732421875 C 748.2283325195312 349.0033264160156 749.1516723632812 351.2933349609375 749.6317138671875 353.94000244140625 C 750.1116943359375 356.58001708984375 750.3516845703125 359.47332763671875 750.3516845703125 362.6199951171875 L 750.3516845703125 406.1600036621094 L 762.24169921875 406.1600036621094 L 762.24169921875 411.2900085449219 C 761.4683837890625 411.7033386230469 760.4083251953125 412.0899963378906 759.0617065429688 412.45001220703125 C 757.7216796875 412.8166809082031 756.231689453125 413.13665771484375 754.5916748046875 413.4100036621094 C 752.9450073242188 413.6833190917969 751.2350463867188 413.8900146484375 749.461669921875 414.0299987792969 C 747.6817016601562 414.163330078125 745.9716796875 414.2300109863281 744.3316650390625 414.2300109863281 C 742.9183349609375 414.2300109863281 741.6217041015625 414.1499938964844 740.4417114257812 413.989990234375 C 739.2550048828125 413.8299865722656 738.2283325195312 413.510009765625 737.3616943359375 413.0299987792969 C 736.4949951171875 412.5566711425781 735.8117065429688 411.89666748046875 735.3117065429688 411.04998779296875 C 734.8117065429688 410.2099914550781 734.5617065429688 409.0833435058594 734.5617065429688 407.6700134277344 L 734.5617065429688 363.989990234375 C 734.5617065429688 361.663330078125 734.4349975585938 359.67999267578125 734.1817016601562 358.0400085449219 C 733.9283447265625 356.3999938964844 733.4483642578125 355.0566711425781 732.74169921875 354.010009765625 C 732.0416870117188 352.9566650390625 731.0650024414062 352.1933288574219 729.8117065429688 351.7200012207031 C 728.558349609375 351.239990234375 726.95166015625 351 724.99169921875 351 C 723.711669921875 351 722.308349609375 351.0899963378906 720.7816772460938 351.2699890136719 C 719.2550048828125 351.45001220703125 717.6817016601562 351.69000244140625 716.0617065429688 351.989990234375 C 714.4483642578125 352.2833251953125 712.8783569335938 352.5899963378906 711.3516845703125 352.9100036621094 C 709.8250122070312 353.2300109863281 708.4349975585938 353.53668212890625 707.1817016601562 353.83001708984375 C 705.9283447265625 354.1300048828125 704.8916625976562 354.3933410644531 704.0717163085938 354.6199951171875 C 703.251708984375 354.8466796875 702.7716674804688 354.98333740234375 702.6317138671875 355.0299987792969 L 702.6317138671875 392.4200134277344 C 702.6317138671875 395.2466735839844 702.70166015625 397.7300109863281 702.8416748046875 399.8699951171875 C 702.9750366210938 402.01666259765625 703.14501953125 403.88665771484375 703.3516845703125 405.4800109863281 C 703.558349609375 407.0733337402344 703.7750244140625 408.40667724609375 704.001708984375 409.4800109863281 C 704.2283325195312 410.5533447265625 704.4116821289062 411.40667724609375 704.5516967773438 412.0400085449219 C 703.9116821289062 412.40667724609375 703.1917114257812 412.7166748046875 702.3916625976562 412.9700012207031 C 701.5983276367188 413.2166748046875 700.7550048828125 413.4433288574219 699.8616943359375 413.6499938964844 C 698.9750366210938 413.8566589355469 698.08837890625 414.0033264160156 697.20166015625 414.0899963378906 C 696.308349609375 414.1833190917969 695.4983520507812 414.2300109863281 694.7716674804688 414.2300109863281 C 693.5850219726562 414.2300109863281 692.5150146484375 414.1266784667969 691.5617065429688 413.9200134277344 C 690.6016845703125 413.7200012207031 689.7583618164062 413.3666687011719 689.0316772460938 412.8599853515625 C 688.3050537109375 412.3599853515625 687.7449951171875 411.69000244140625 687.3516845703125 410.8500061035156 C 686.9650268554688 410.0033264160156 686.7716674804688 408.9433288574219 686.7716674804688 407.6700134277344 L 686.7716674804688 349.8399963378906 ZM 786.848388671875 396.5899963378906 C 788.3551025390625 396.5899963378906 789.7350463867188 396.84332275390625 790.9884033203125 397.3500061035156 C 792.2417602539062 397.8500061035156 793.311767578125 398.5199890136719 794.1984252929688 399.3599853515625 C 795.0917358398438 400.2066650390625 795.7883911132812 401.2099914550781 796.2883911132812 402.3699951171875 C 796.7883911132812 403.5299987792969 797.0383911132812 404.75 797.0383911132812 406.0299987792969 C 797.0383911132812 407.39666748046875 796.7883911132812 408.6600036621094 796.2883911132812 409.82000732421875 C 795.7883911132812 410.9800109863281 795.0917358398438 411.99334716796875 794.1984252929688 412.8599853515625 C 793.311767578125 413.7266540527344 792.2417602539062 414.4100036621094 790.9884033203125 414.9100036621094 C 789.7350463867188 415.4166564941406 788.3551025390625 415.6700134277344 786.848388671875 415.6700134277344 C 785.3950805664062 415.6700134277344 784.0517578125 415.4166564941406 782.8184204101562 414.9100036621094 C 781.5917358398438 414.4100036621094 780.53173828125 413.7266540527344 779.638427734375 412.8599853515625 C 778.7517700195312 411.99334716796875 778.0684204101562 410.9800109863281 777.58837890625 409.82000732421875 C 777.1083984375 408.6600036621094 776.868408203125 407.39666748046875 776.868408203125 406.0299987792969 C 776.868408203125 404.75 777.1083984375 403.5299987792969 777.58837890625 402.3699951171875 C 778.0684204101562 401.2099914550781 778.7517700195312 400.2066650390625 779.638427734375 399.3599853515625 C 780.53173828125 398.5199890136719 781.5917358398438 397.8500061035156 782.8184204101562 397.3500061035156 C 784.0517578125 396.84332275390625 785.3950805664062 396.5899963378906 786.848388671875 396.5899963378906 ZM 870.7938842773438 357.55999755859375 C 869.2938842773438 356.6933288574219 867.6305541992188 355.760009765625 865.8038940429688 354.760009765625 C 863.98388671875 353.7533264160156 862.0838623046875 352.83001708984375 860.1038818359375 351.989990234375 C 858.1171875 351.1433410644531 856.1005249023438 350.4366760253906 854.0538940429688 349.8699951171875 C 852.0005493164062 349.3033447265625 849.9705200195312 349.0199890136719 847.9638671875 349.0199890136719 C 844.8638916015625 349.0199890136719 842.23388671875 349.7833251953125 840.0738525390625 351.30999755859375 C 837.9072265625 352.836669921875 836.127197265625 354.816650390625 834.73388671875 357.25 C 833.3472290039062 359.69000244140625 832.3338623046875 362.3900146484375 831.69384765625 365.3500061035156 C 831.060546875 368.316650390625 830.743896484375 371.23333740234375 830.743896484375 374.1000061035156 C 830.743896484375 378.566650390625 831.3338623046875 382.760009765625 832.5138549804688 386.67999267578125 C 833.7005615234375 390.6000061035156 835.5238647460938 394.0199890136719 837.98388671875 396.94000244140625 C 840.44384765625 399.85333251953125 843.5438842773438 402.1433410644531 847.2838745117188 403.80999755859375 C 851.0172119140625 405.4700012207031 855.4371948242188 406.29998779296875 860.5438842773438 406.29998779296875 C 863.3705444335938 406.29998779296875 866.2772216796875 406.04998779296875 869.2638549804688 405.54998779296875 C 872.243896484375 405.04998779296875 875.3071899414062 404.32000732421875 878.453857421875 403.3599853515625 L 880.7138671875 407.94000244140625 C 878.840576171875 409.2200012207031 876.810546875 410.3133239746094 874.6239013671875 411.2200012207031 C 872.4371948242188 412.1333312988281 870.1805419921875 412.8733215332031 867.8538818359375 413.44000244140625 C 865.5338745117188 414.0133361816406 863.1871948242188 414.4366760253906 860.8139038085938 414.7099914550781 C 858.4472045898438 414.98333740234375 856.1239013671875 415.1199951171875 853.8438720703125 415.1199951171875 C 848.877197265625 415.1199951171875 844.0571899414062 414.3333435058594 839.3838500976562 412.760009765625 C 834.7172241210938 411.1866760253906 830.570556640625 408.88665771484375 826.94384765625 405.8599853515625 C 823.3238525390625 402.82666015625 820.4205322265625 399.07666015625 818.23388671875 394.6099853515625 C 816.04052734375 390.1433410644531 814.94384765625 385.01666259765625 814.94384765625 379.2300109863281 C 814.94384765625 373.2633361816406 816.00390625 367.9100036621094 818.1239013671875 363.16998291015625 C 820.243896484375 358.42999267578125 823.1605224609375 354.40667724609375 826.8739013671875 351.1000061035156 C 830.5872192382812 347.7933349609375 834.9871826171875 345.2633361816406 840.0738525390625 343.510009765625 C 845.1538696289062 341.75665283203125 850.6771850585938 340.8800048828125 856.6438598632812 340.8800048828125 C 857.1038818359375 340.8800048828125 857.9038696289062 340.913330078125 859.0438842773438 340.9800109863281 C 860.1838989257812 341.0533447265625 861.4705200195312 341.16998291015625 862.9038696289062 341.33001708984375 C 864.3372192382812 341.48333740234375 865.83056640625 341.7099914550781 867.3838500976562 342.010009765625 C 868.9305419921875 342.3033447265625 870.3405151367188 342.67999267578125 871.6138916015625 343.1400146484375 C 872.8938598632812 343.59332275390625 873.94384765625 344.1400146484375 874.7638549804688 344.7799987792969 C 875.5838623046875 345.413330078125 875.993896484375 346.163330078125 875.993896484375 347.0299987792969 C 875.993896484375 347.25665283203125 875.98388671875 347.4966735839844 875.9638671875 347.75 C 875.9371948242188 348.0033264160156 875.8338623046875 348.24334716796875 875.6538696289062 348.4700012207031 L 870.7938842773438 357.55999755859375 ZM 889.52685546875 344.8500061035156 C 890.48681640625 344.4366760253906 891.8302001953125 344.0466613769531 893.5568237304688 343.67999267578125 C 895.2901611328125 343.32000732421875 897.1934814453125 343.0233154296875 899.266845703125 342.7900085449219 C 901.3402099609375 342.5633239746094 903.460205078125 342.3833312988281 905.6268310546875 342.25 C 907.7935180664062 342.1099853515625 909.7634887695312 342.0400085449219 911.536865234375 342.0400085449219 C 912.496826171875 342.0400085449219 913.3402099609375 342.0633239746094 914.0668334960938 342.1099853515625 C 914.8001708984375 342.15667724609375 915.4168701171875 342.2933349609375 915.9168701171875 342.5199890136719 C 916.4168701171875 342.7466735839844 916.7935180664062 343.1000061035156 917.046875 343.58001708984375 C 917.2935180664062 344.05999755859375 917.4168701171875 344.75665283203125 917.4168701171875 345.66998291015625 L 917.4168701171875 362.07000732421875 L 926.0968627929688 349.70001220703125 C 928.2901611328125 346.6933288574219 930.7168579101562 344.4700012207031 933.3768310546875 343.0299987792969 C 936.0435180664062 341.5966796875 939.0635375976562 340.8800048828125 942.4368286132812 340.8800048828125 C 943.0301513671875 340.8800048828125 943.7935180664062 340.913330078125 944.7268676757812 340.9800109863281 C 945.66015625 341.0533447265625 946.573486328125 341.2266845703125 947.4668579101562 341.5 C 948.353515625 341.7733154296875 949.1168212890625 342.1600036621094 949.7568359375 342.6600036621094 C 950.3901977539062 343.1600036621094 950.7068481445312 343.84332275390625 950.7068481445312 344.7099914550781 C 950.7068481445312 344.9366760253906 950.7068481445312 345.1199951171875 950.7068481445312 345.260009765625 C 950.7068481445312 345.3933410644531 950.6635131835938 345.5733337402344 950.5768432617188 345.79998779296875 L 947.6368408203125 355.44000244140625 C 945.9035034179688 354.8933410644531 944.3402099609375 354.50665283203125 942.9468383789062 354.2799987792969 C 941.5601806640625 354.0533447265625 940.2734985351562 353.94000244140625 939.0868530273438 353.94000244140625 C 936.6268310546875 353.94000244140625 934.2801513671875 354.6333312988281 932.046875 356.0199890136719 C 929.8135375976562 357.413330078125 927.7634887695312 359.0533447265625 925.8968505859375 360.94000244140625 C 924.0301513671875 362.8333435058594 922.3768310546875 364.75 920.9368286132812 366.69000244140625 C 919.5035400390625 368.6233215332031 918.3302001953125 370.11334228515625 917.4168701171875 371.1600036621094 L 917.4168701171875 392.4200134277344 C 917.4168701171875 395.2466735839844 917.48681640625 397.7300109863281 917.6268310546875 399.8699951171875 C 917.7601928710938 402.01666259765625 917.93017578125 403.88665771484375 918.1368408203125 405.4800109863281 C 918.343505859375 407.0733337402344 918.5601806640625 408.40667724609375 918.786865234375 409.4800109863281 C 919.0134887695312 410.5533447265625 919.1968383789062 411.40667724609375 919.3368530273438 412.0400085449219 C 918.6968383789062 412.40667724609375 917.9768676757812 412.7166748046875 917.1768188476562 412.9700012207031 C 916.3834838867188 413.2166748046875 915.5401611328125 413.4433288574219 914.6468505859375 413.6499938964844 C 913.7601928710938 413.8566589355469 912.87353515625 414.0033264160156 911.98681640625 414.0899963378906 C 911.093505859375 414.1833190917969 910.2835083007812 414.2300109863281 909.5568237304688 414.2300109863281 C 908.3701782226562 414.2300109863281 907.3001708984375 414.1266784667969 906.3468627929688 413.9200134277344 C 905.3868408203125 413.7200012207031 904.5435180664062 413.3666687011719 903.8168334960938 412.8599853515625 C 903.0902099609375 412.3599853515625 902.5301513671875 411.69000244140625 902.1368408203125 410.8500061035156 C 901.7501831054688 410.0033264160156 901.5568237304688 408.9433288574219 901.5568237304688 407.6700134277344 L 901.5568237304688 349.9700012207031 L 889.52685546875 349.9700012207031 L 889.52685546875 344.8500061035156 L 889.52685546875 344.8500061035156 Z" transform="matrix(1, 0, 0, 1, -244.89190673828125, -308.0913391113281)" style="fill: rgb(0, 0, 0); white-space: pre; color: rgb(51, 51, 51);"/></svg>