<?xml version="1.0" encoding="utf-8"?>
<svg id="master-artboard" viewBox="0 0 541.3768310546875 152.1353302001953" xmlns="http://www.w3.org/2000/svg" width="541.3768310546875px" height="152.1353302001953px" version="1.1" style="shape-rendering:geometricPrecision; text-rendering:geometricPrecision; image-rendering:optimizeQuality; fill-rule:evenodd; clip-rule:evenodd"><rect id="ee-background" x="0" y="0" width="541.3768310546875" height="152.1353302001953" style="fill: white; fill-opacity: 0; pointer-events: none;"/><defs><style id="ee-google-fonts">@import url(https://fonts.googleapis.com/css?family=Artifika:400);</style></defs><path d="M 231.37982177734375 511.5899963378906 C 230.69314575195312 512.9566650390625 229.8164825439453 514.2433471679688 228.74981689453125 515.4500122070312 C 227.67648315429688 516.663330078125 226.4798126220703 517.7233276367188 225.15982055664062 518.6300048828125 C 223.83314514160156 519.5433349609375 222.40647888183594 520.2633056640625 220.87982177734375 520.7899780273438 C 219.3531494140625 521.3099975585938 217.7698211669922 521.5700073242188 216.12982177734375 521.5700073242188 C 214.94981384277344 521.5700073242188 213.9364776611328 521.2733154296875 213.08981323242188 520.6799926757812 C 212.24981689453125 520.086669921875 211.57647705078125 519.0633544921875 211.06980895996094 517.6099853515625 L 208.2698211669922 509.20001220703125 C 208.7698211669922 508.97332763671875 209.5098114013672 508.70001220703125 210.4898223876953 508.3800048828125 C 211.46981811523438 508.05999755859375 212.52981567382812 507.6266784667969 213.66981506347656 507.0799865722656 C 214.809814453125 506.5333251953125 215.95980834960938 505.82666015625 217.11981201171875 504.9599914550781 C 218.28648376464844 504.09332275390625 219.3031463623047 503 220.16981506347656 501.67999267578125 C 220.98980712890625 500.40667724609375 221.809814453125 498.2066650390625 222.62982177734375 495.0799865722656 C 223.44981384277344 491.9599914550781 224.22314453125 488.2933349609375 224.94981384277344 484.08001708984375 C 225.6831512451172 479.8599853515625 226.37982177734375 475.2900085449219 227.03981018066406 470.3699951171875 C 227.69981384277344 465.45001220703125 228.2698211669922 460.5733337402344 228.74981689453125 455.739990234375 C 229.22314453125 450.913330078125 229.6098175048828 446.30999755859375 229.90982055664062 441.92999267578125 C 230.20315551757812 437.5566711425781 230.37315368652344 433.7966613769531 230.41981506347656 430.6499938964844 L 217.08981323242188 430.6499938964844 L 217.08981323242188 425.25 C 217.6831512451172 424.9366760253906 218.66314697265625 424.5966796875 220.02981567382812 424.2300109863281 C 221.396484375 423.86334228515625 222.91314697265625 423.5199890136719 224.57981872558594 423.20001220703125 C 226.23980712890625 422.8800048828125 227.9464874267578 422.6199951171875 229.69981384277344 422.41998291015625 C 231.45315551757812 422.21331787109375 233.03648376464844 422.1099853515625 234.44981384277344 422.1099853515625 C 236.32315063476562 422.1099853515625 237.9298095703125 422.1433410644531 239.26980590820312 422.2099914550781 C 240.61648559570312 422.27667236328125 241.78981018066406 422.4366760253906 242.78981018066406 422.69000244140625 C 243.79647827148438 422.9433288574219 244.6531524658203 423.32000732421875 245.3598175048828 423.82000732421875 C 246.0664825439453 424.32000732421875 246.69314575195312 424.9800109863281 247.23980712890625 425.79998779296875 C 248.92648315429688 429.7200012207031 250.63314819335938 433.8333435058594 252.3598175048828 438.1400146484375 C 254.0931396484375 442.4466552734375 255.77981567382812 446.80999755859375 257.4197998046875 451.2300109863281 C 259.059814453125 455.6499938964844 265.1231384277344 473.30999755859375 275.60980224609375 504.2099914550781 C 284.9498291015625 475.9966735839844 290.8731384277344 458.4166564941406 293.37982177734375 451.4700012207031 C 295.886474609375 444.51666259765625 298.0731506347656 438.7066650390625 299.9398193359375 434.0400085449219 C 301.8064880371094 429.3666687011719 303.2664794921875 426.1433410644531 304.31982421875 424.3699951171875 C 304.27313232421875 424.3233337402344 304.62646484375 424.17333984375 305.37982177734375 423.91998291015625 C 306.12646484375 423.6666564941406 307.0464782714844 423.4033203125 308.13983154296875 423.1300048828125 C 309.23980712890625 422.8566589355469 310.4164733886719 422.6199951171875 311.6697998046875 422.41998291015625 C 312.92315673828125 422.21331787109375 314.0731506347656 422.1099853515625 315.11981201171875 422.1099853515625 C 316.213134765625 422.1099853515625 317.0998229980469 422.21331787109375 317.7798156738281 422.41998291015625 C 318.46649169921875 422.6199951171875 319.0131530761719 422.9366760253906 319.4197998046875 423.3699951171875 C 319.8331298828125 423.8033447265625 320.15313720703125 424.3500061035156 320.37982177734375 425.010009765625 C 320.6064758300781 425.6766662597656 320.8131408691406 426.44000244140625 320.99981689453125 427.29998779296875 L 332.06982421875 510.7699890136719 L 345.059814453125 508.7900085449219 L 346.289794921875 513.8499755859375 C 345.329833984375 514.8033447265625 343.963134765625 515.7466430664062 342.1898193359375 516.6799926757812 C 340.4098205566406 517.6199951171875 338.4598083496094 518.4766845703125 336.3398132324219 519.25 C 334.2198181152344 520.0233154296875 332.03314208984375 520.6500244140625 329.7798156738281 521.1300048828125 C 327.5264892578125 521.6099853515625 325.4431457519531 521.8499755859375 323.5298156738281 521.8499755859375 C 322.74981689453125 521.8499755859375 321.963134765625 521.77001953125 321.1697998046875 521.6099853515625 C 320.36981201171875 521.4500122070312 319.63983154296875 521.1766967773438 318.97979736328125 520.7899780273438 C 318.31982421875 520.4033203125 317.74981689453125 519.8766479492188 317.2698059082031 519.2100219726562 C 316.7898254394531 518.5499877929688 316.483154296875 517.6966552734375 316.3498229980469 516.6500244140625 L 307.7998046875 446.510009765625 C 303.6064758300781 458.5899963378906 298.94647216796875 471.5233459472656 293.81982421875 485.30999755859375 C 288.6931457519531 499.0966796875 285.5031433105469 507.49334716796875 284.24981689453125 510.5 C 282.9964904785156 513.5066528320312 282.0164794921875 515.7166748046875 281.309814453125 517.1300048828125 C 280.6031494140625 518.5433349609375 280.136474609375 519.3866577148438 279.9098205566406 519.6599731445312 C 279.68316650390625 519.933349609375 279.56982421875 520.0466918945312 279.56982421875 520 L 272.11981201171875 520 C 271.0264892578125 520 270.06982421875 519.9199829101562 269.24981689453125 519.760009765625 C 268.4298095703125 519.5999755859375 267.6998291015625 519.316650390625 267.059814453125 518.9099731445312 C 266.4197998046875 518.4966430664062 265.8498229980469 517.9266967773438 265.3498229980469 517.2000122070312 C 264.8498229980469 516.4666748046875 264.3931579589844 515.530029296875 263.9798278808594 514.3900146484375 C 259.5198059082031 502.45001220703125 255.78314208984375 492.2200012207031 252.76980590820312 483.70001220703125 C 249.76315307617188 475.17999267578125 247.34982299804688 468.183349609375 245.52981567382812 462.7099914550781 C 243.38314819335938 456.2900085449219 241.6964874267578 450.98333740234375 240.46981811523438 446.7900085449219 C 240.24314880371094 450.663330078125 240.00314331054688 454.6600036621094 239.74981689453125 458.7799987792969 C 239.50314331054688 462.90667724609375 239.20648193359375 467.0333251953125 238.8598175048828 471.1600036621094 C 238.51980590820312 475.2799987792969 238.12315368652344 479.3233337402344 237.66981506347656 483.2900085449219 C 237.20980834960938 487.25665283203125 236.6831512451172 490.99334716796875 236.08981323242188 494.5 C 235.50314331054688 498.0133361816406 234.81980895996094 501.2366638183594 234.03981018066406 504.1700134277344 C 233.2664794921875 507.1099853515625 232.37982177734375 509.5833435058594 231.37982177734375 511.5899963378906 Z" transform="matrix(1, 0, 0, 1, -197.63546752929688, -400.6510925292969)" style="fill: rgb(0, 0, 0); white-space: pre; color: rgb(51, 51, 51);"/><path d="M 537.6026611328125 131 L 537.6026611328125 133.94000244140625 C 537.6026611328125 135.9933319091797 537.1593017578125 137.4166717529297 536.2726440429688 138.20999145507812 C 535.3793334960938 139.00999450683594 533.95263671875 139.41000366210938 531.9926147460938 139.41000366210938 L 513.8126220703125 139.41000366210938 L 513.8126220703125 179.47000122070312 C 513.8126220703125 184.57000732421875 514.7459716796875 188.42999267578125 516.6126708984375 191.0500030517578 C 518.4793090820312 193.6699981689453 521.3292846679688 194.97999572753906 525.1626586914062 194.97999572753906 C 526.8493041992188 194.97999572753906 528.5792846679688 194.77667236328125 530.3526611328125 194.3699951171875 C 532.1326293945312 193.9566650390625 533.7293090820312 193.52333068847656 535.1426391601562 193.07000732421875 C 536.5559692382812 192.61666870117188 537.7059936523438 192.21665954589844 538.5926513671875 191.8699951171875 C 539.4793090820312 191.52999877929688 539.8992919921875 191.4066619873047 539.8526611328125 191.5 L 542.0426635742188 196.2100067138672 C 540.4492797851562 197.21665954589844 538.85595703125 198.13999938964844 537.2626342773438 198.97999572753906 C 535.6626586914062 199.82666015625 533.9759521484375 200.55667114257812 532.20263671875 201.1699981689453 C 530.4226684570312 201.78334045410156 528.50927734375 202.26333618164062 526.462646484375 202.61000061035156 C 524.4093017578125 202.9499969482422 522.10595703125 203.1199951171875 519.5526123046875 203.1199951171875 C 516.2259521484375 203.1199951171875 513.2293090820312 202.60667419433594 510.5626525878906 201.5800018310547 C 507.8959655761719 200.55332946777344 505.6293029785156 199.0833282470703 503.76263427734375 197.1699981689453 C 501.8959655761719 195.2566680908203 500.4593200683594 192.91000366210938 499.45263671875 190.1300048828125 C 498.45263671875 187.35000610351562 497.95263671875 184.2066650390625 497.95263671875 180.6999969482422 L 497.95263671875 139.41000366210938 L 483.8026428222656 139.41000366210938 L 483.8026428222656 136.3300018310547 C 483.8026428222656 134.2833251953125 484.2459716796875 132.88333129882812 485.13262939453125 132.1300048828125 C 486.0259704589844 131.3766632080078 487.4493103027344 131 489.40264892578125 131 L 497.95263671875 131 L 497.95263671875 114.7300033569336 C 497.95263671875 113.49666595458984 498.1459655761719 112.45999908447266 498.53265380859375 111.62000274658203 C 498.9193115234375 110.77999877929688 499.47930908203125 110.12000274658203 500.212646484375 109.63999938964844 C 500.9393005371094 109.16000366210938 501.78265380859375 108.81666564941406 502.7426452636719 108.61000061035156 C 503.69598388671875 108.40333557128906 504.7659606933594 108.30000305175781 505.95263671875 108.30000305175781 C 506.6793212890625 108.30000305175781 507.4859619140625 108.34666442871094 508.3726501464844 108.44000244140625 C 509.2659606933594 108.53333282470703 510.1559753417969 108.66000366210938 511.0426330566406 108.81999969482422 C 511.9293212890625 108.9800033569336 512.7726440429688 109.19666290283203 513.5726318359375 109.47000122070312 C 514.3726196289062 109.74333190917969 515.0892944335938 110.05999755859375 515.72265625 110.41999816894531 C 515.5892944335938 111.05999755859375 515.4093017578125 111.91666412353516 515.1826171875 112.98999786376953 C 514.9492797851562 114.0566635131836 514.732666015625 115.41000366210938 514.5326538085938 117.05000305175781 C 514.3259887695312 118.69666290283203 514.1526489257812 120.66999816894531 514.0126342773438 122.97000122070312 C 513.8793334960938 125.2699966430664 513.8126220703125 127.94666290283203 513.8126220703125 131 L 537.6026611328125 131 ZM 577.1103515625 194.16000366210938 L 589.0103149414062 194.16000366210938 L 589.0103149414062 199.2899932861328 C 588.2303466796875 199.70333862304688 587.1703491210938 200.08999633789062 585.830322265625 200.4499969482422 C 584.483642578125 200.81666564941406 582.9903564453125 201.1366729736328 581.350341796875 201.41000366210938 C 579.7103271484375 201.68333435058594 578.0003051757812 201.88999938964844 576.2203369140625 202.02999877929688 C 574.447021484375 202.163330078125 572.7403564453125 202.22999572753906 571.100341796875 202.22999572753906 C 569.68701171875 202.22999572753906 568.386962890625 202.14999389648438 567.2003173828125 201.99000549316406 C 566.013671875 201.8300018310547 564.9769897460938 201.50999450683594 564.09033203125 201.02999877929688 C 563.2036743164062 200.55667114257812 562.5070190429688 199.89666748046875 562.0003051757812 199.0500030517578 C 561.5003051757812 198.2100067138672 561.2503051757812 197.0833282470703 561.2503051757812 195.6699981689453 L 561.2503051757812 137.6999969482422 L 549.2203369140625 137.6999969482422 L 549.2203369140625 132.57000732421875 C 550.1802978515625 132.163330078125 551.523681640625 131.77667236328125 553.2503051757812 131.41000366210938 C 554.983642578125 131.0433349609375 556.886962890625 130.74667358398438 558.9603271484375 130.51998901367188 C 561.03369140625 130.2933349609375 563.1536865234375 130.11000061035156 565.3203125 129.97000122070312 C 567.4869995117188 129.836669921875 569.4569702148438 129.76998901367188 571.2303466796875 129.76998901367188 C 572.1903076171875 129.76998901367188 573.03369140625 129.7933349609375 573.7603149414062 129.83999633789062 C 574.49365234375 129.88665771484375 575.1103515625 130.02333068847656 575.6103515625 130.25 C 576.1103515625 130.47666931152344 576.4869995117188 130.8300018310547 576.7403564453125 131.30999755859375 C 576.9869995117188 131.79000854492188 577.1103515625 132.48333740234375 577.1103515625 133.38999938964844 L 577.1103515625 194.16000366210938 M 559.6103515625 107.20999908447266 C 559.6103515625 105.9366683959961 559.8603515625 104.7300033569336 560.3603515625 103.58999633789062 C 560.8670043945312 102.44999694824219 561.5536499023438 101.47000122070312 562.4203491210938 100.6500015258789 C 563.2803344726562 99.83000183105469 564.3036499023438 99.18000030517578 565.4903564453125 98.69999694824219 C 566.677001953125 98.22000122070312 567.9302978515625 97.9800033569336 569.2503051757812 97.9800033569336 C 570.5703125 97.9800033569336 571.8236694335938 98.22000122070312 573.0103149414062 98.69999694824219 C 574.197021484375 99.18000030517578 575.2236328125 99.83000183105469 576.09033203125 100.6500015258789 C 576.9569702148438 101.47000122070312 577.6403198242188 102.44999694824219 578.1403198242188 103.58999633789062 C 578.6403198242188 104.7300033569336 578.8903198242188 105.9366683959961 578.8903198242188 107.20999908447266 C 578.8903198242188 108.48332977294922 578.6403198242188 109.66999816894531 578.1403198242188 110.7699966430664 C 577.6403198242188 111.86333465576172 576.9569702148438 112.81999969482422 576.09033203125 113.63999938964844 C 575.2236328125 114.45999908447266 574.197021484375 115.1066665649414 573.0103149414062 115.58000183105469 C 571.8236694335938 116.05999755859375 570.5703125 116.30000305175781 569.2503051757812 116.30000305175781 C 567.9302978515625 116.30000305175781 566.677001953125 116.05999755859375 565.4903564453125 115.58000183105469 C 564.3036499023438 115.1066665649414 563.2803344726562 114.45999908447266 562.4203491210938 113.63999938964844 C 561.5536499023438 112.81999969482422 560.8670043945312 111.86333465576172 560.3603515625 110.7699966430664 C 559.8603515625 109.66999816894531 559.6103515625 108.48332977294922 559.6103515625 107.20999908447266 ZM 676.78564453125 166.13999938964844 C 676.78564453125 171.6999969482422 675.815673828125 176.7566680908203 673.8756103515625 181.30999755859375 C 671.9356689453125 185.8699951171875 669.2689819335938 189.76666259765625 665.8756103515625 193 C 662.4822998046875 196.24000549316406 658.505615234375 198.73666381835938 653.9456176757812 200.49000549316406 C 649.392333984375 202.2433319091797 644.515625 203.1199951171875 639.3156127929688 203.1199951171875 C 634.0289916992188 203.1199951171875 629.0956420898438 202.22999572753906 624.515625 200.4499969482422 C 619.9356689453125 198.67666625976562 615.9622802734375 196.1699981689453 612.5956420898438 192.92999267578125 C 609.2222900390625 189.69667053222656 606.5556640625 185.81333923339844 604.5956420898438 181.27999877929688 C 602.6356201171875 176.74667358398438 601.6556396484375 171.6999969482422 601.6556396484375 166.13999938964844 C 601.6556396484375 160.5333251953125 602.6356201171875 155.44000244140625 604.5956420898438 150.86000061035156 C 606.5556640625 146.27999877929688 609.2222900390625 142.36000061035156 612.5956420898438 139.10000610351562 C 615.9622802734375 135.83999633789062 619.9356689453125 133.32333374023438 624.515625 131.5500030517578 C 629.0956420898438 129.76998901367188 634.0289916992188 128.8800048828125 639.3156127929688 128.8800048828125 C 644.5623168945312 128.8800048828125 649.4622802734375 129.76998901367188 654.015625 131.5500030517578 C 658.5756225585938 133.32333374023438 662.5422973632812 135.83999633789062 665.9156494140625 139.10000610351562 C 669.2822875976562 142.36000061035156 671.9356689453125 146.27999877929688 673.8756103515625 150.86000061035156 C 675.815673828125 155.44000244140625 676.78564453125 160.5333251953125 676.78564453125 166.13999938964844 M 618.53564453125 166 C 618.53564453125 169.8733367919922 618.832275390625 173.61000061035156 619.4256591796875 177.20999145507812 C 620.0189819335938 180.80999755859375 621.102294921875 183.99000549316406 622.6756591796875 186.75 C 624.2489624023438 189.50332641601562 626.3689575195312 191.6999969482422 629.03564453125 193.33999633789062 C 631.7023315429688 194.97999572753906 635.1289672851562 195.8000030517578 639.3156127929688 195.8000030517578 C 643.4622802734375 195.8000030517578 646.8689575195312 194.97999572753906 649.53564453125 193.33999633789062 C 652.2023315429688 191.6999969482422 654.2989501953125 189.50332641601562 655.8256225585938 186.75 C 657.352294921875 183.99000549316406 658.4122924804688 180.80999755859375 659.005615234375 177.20999145507812 C 659.5989990234375 173.61000061035156 659.8956298828125 169.8733367919922 659.8956298828125 166 C 659.8956298828125 162.1266632080078 659.5989990234375 158.38999938964844 659.005615234375 154.79000854492188 C 658.4122924804688 151.19000244140625 657.352294921875 148.00999450683594 655.8256225585938 145.25 C 654.2989501953125 142.49667358398438 652.2023315429688 140.3000030517578 649.53564453125 138.66000366210938 C 646.8689575195312 137.02000427246094 643.4622802734375 136.1999969482422 639.3156127929688 136.1999969482422 C 635.1289672851562 136.1999969482422 631.7023315429688 137.02000427246094 629.03564453125 138.66000366210938 C 626.3689575195312 140.3000030517578 624.2489624023438 142.49667358398438 622.6756591796875 145.25 C 621.102294921875 148.00999450683594 620.0189819335938 151.19000244140625 619.4256591796875 154.79000854492188 C 618.832275390625 158.38999938964844 618.53564453125 162.1266632080078 618.53564453125 166 ZM 701.3186645507812 137.83999633789062 L 689.2886962890625 137.83999633789062 L 689.2886962890625 132.70999145507812 C 690.2486572265625 132.29666137695312 691.592041015625 131.91000366210938 693.3186645507812 131.5500030517578 C 695.052001953125 131.18333435058594 696.955322265625 130.88665771484375 699.0286865234375 130.66000366210938 C 701.10205078125 130.43333435058594 703.2220458984375 130.25 705.388671875 130.11000061035156 C 707.5553588867188 129.97666931152344 709.5253295898438 129.91000366210938 711.2987060546875 129.91000366210938 C 712.2586669921875 129.91000366210938 713.10205078125 129.92999267578125 713.8286743164062 129.97000122070312 C 714.56201171875 130.01666259765625 715.1787109375 130.15333557128906 715.6787109375 130.3800048828125 C 716.1787109375 130.61334228515625 716.5553588867188 130.9666748046875 716.8087158203125 131.44000244140625 C 717.0553588867188 131.9199981689453 717.1787109375 132.61666870117188 717.1787109375 133.52999877929688 L 717.1787109375 136.8800048828125 C 717.8653564453125 136.65333557128906 719.1320190429688 136.10665893554688 720.9786987304688 135.239990234375 C 722.8186645507812 134.3733367919922 725.06201171875 133.47332763671875 727.7086791992188 132.54000854492188 C 730.3486938476562 131.60665893554688 733.2420043945312 130.76333618164062 736.388671875 130.010009765625 C 739.5353393554688 129.2566680908203 742.7486572265625 128.8800048828125 746.0286865234375 128.8800048828125 C 749.995361328125 128.8800048828125 753.2086791992188 129.42666625976562 755.668701171875 130.51998901367188 C 758.128662109375 131.61334228515625 760.0419921875 133.1300048828125 761.40869140625 135.07000732421875 C 762.7753295898438 137.00332641601562 763.6986694335938 139.2933349609375 764.1787109375 141.94000244140625 C 764.65869140625 144.5800018310547 764.898681640625 147.47332763671875 764.898681640625 150.6199951171875 L 764.898681640625 194.16000366210938 L 776.7886962890625 194.16000366210938 L 776.7886962890625 199.2899932861328 C 776.015380859375 199.70333862304688 774.955322265625 200.08999633789062 773.6087036132812 200.4499969482422 C 772.2686767578125 200.81666564941406 770.7786865234375 201.1366729736328 769.138671875 201.41000366210938 C 767.4920043945312 201.68333435058594 765.7820434570312 201.88999938964844 764.0086669921875 202.02999877929688 C 762.2286987304688 202.163330078125 760.5186767578125 202.22999572753906 758.878662109375 202.22999572753906 C 757.46533203125 202.22999572753906 756.168701171875 202.14999389648438 754.9887084960938 201.99000549316406 C 753.802001953125 201.8300018310547 752.7753295898438 201.50999450683594 751.90869140625 201.02999877929688 C 751.0419921875 200.55667114257812 750.3587036132812 199.89666748046875 749.8587036132812 199.0500030517578 C 749.3587036132812 198.2100067138672 749.1087036132812 197.0833282470703 749.1087036132812 195.6699981689453 L 749.1087036132812 151.99000549316406 C 749.1087036132812 149.663330078125 748.9819946289062 147.67999267578125 748.7286987304688 146.04000854492188 C 748.475341796875 144.39999389648438 747.995361328125 143.05667114257812 747.2886962890625 142.00999450683594 C 746.5886840820312 140.9566650390625 745.6119995117188 140.19332885742188 744.3587036132812 139.72000122070312 C 743.1053466796875 139.24000549316406 741.4986572265625 139 739.5386962890625 139 C 738.2586669921875 139 736.8553466796875 139.08999633789062 735.3286743164062 139.27000427246094 C 733.802001953125 139.4499969482422 732.2286987304688 139.69000244140625 730.6087036132812 139.99000549316406 C 728.995361328125 140.2833251953125 727.4253540039062 140.58999633789062 725.898681640625 140.91000366210938 C 724.3720092773438 141.22999572753906 722.9819946289062 141.5366668701172 721.7286987304688 141.8300018310547 C 720.475341796875 142.1300048828125 719.4386596679688 142.39334106445312 718.6187133789062 142.6199951171875 C 717.7987060546875 142.84666442871094 717.3186645507812 142.98333740234375 717.1787109375 143.02999877929688 L 717.1787109375 180.4199981689453 C 717.1787109375 183.24667358398438 717.2486572265625 185.72999572753906 717.388671875 187.8699951171875 C 717.5220336914062 190.01666259765625 717.6920166015625 191.8866729736328 717.898681640625 193.47999572753906 C 718.1053466796875 195.07333374023438 718.322021484375 196.4066619873047 718.5487060546875 197.47999572753906 C 718.7753295898438 198.55332946777344 718.9586791992188 199.4066619873047 719.0986938476562 200.0399932861328 C 718.4586791992188 200.4066619873047 717.7387084960938 200.71665954589844 716.9386596679688 200.97000122070312 C 716.1453247070312 201.21665954589844 715.302001953125 201.44332885742188 714.40869140625 201.64999389648438 C 713.5220336914062 201.85667419433594 712.6353759765625 202.00332641601562 711.7486572265625 202.08999633789062 C 710.8553466796875 202.18333435058594 710.0453491210938 202.22999572753906 709.3186645507812 202.22999572753906 C 708.1320190429688 202.22999572753906 707.06201171875 202.1266632080078 706.1087036132812 201.9199981689453 C 705.148681640625 201.72000122070312 704.3053588867188 201.36666870117188 703.5786743164062 200.86000061035156 C 702.85205078125 200.36000061035156 702.2919921875 199.69000244140625 701.898681640625 198.85000610351562 C 701.5120239257812 198.00332641601562 701.3186645507812 196.94332885742188 701.3186645507812 195.6699981689453 L 701.3186645507812 137.83999633789062 Z" transform="matrix(1, 0, 0, 1, -247.7288818359375, -81.13079833984375)" style="fill: rgb(0, 0, 0); white-space: pre; color: rgb(0, 0, 0);"/><g transform="matrix(0.14462199807167053, 0, 0, 0.14462199807167053, 159.3190574645996, 48.636417388916016)"><title/><g id="icomoon-ignore">
</g><path d="M256 0c-139.374 0-252.729 111.381-255.924 249.987 2.96-120.932 94.916-217.987 207.924-217.987 114.875 0 208 100.288 208 224 0 26.51 21.49 48 48 48s48-21.49 48-48c0-141.385-114.615-256-256-256zM256 512c139.374 0 252.729-111.381 255.924-249.987-2.96 120.932-94.916 217.987-207.924 217.987-114.875 0-208-100.288-208-224 0-26.51-21.49-48-48-48s-48 21.49-48 48c0 141.385 114.615 256 256 256z"/></g></svg>